<?xml version="1.0" encoding="UTF-8" standalone="no"?>
<!-- Created with Inkscape (http://www.inkscape.org/) -->

<svg
   width="210mm"
   height="297mm"
   viewBox="0 0 210 297"
   version="1.1"
   id="svg1"
   inkscape:version="1.4 (86a8ad7, 2024-10-11)"
   sodipodi:docname="logo.svg"
   xmlns:inkscape="http://www.inkscape.org/namespaces/inkscape"
   xmlns:sodipodi="http://sodipodi.sourceforge.net/DTD/sodipodi-0.dtd"
   xmlns="http://www.w3.org/2000/svg"
   xmlns:svg="http://www.w3.org/2000/svg">
  <sodipodi:namedview
     id="namedview1"
     pagecolor="#00000000"
     bordercolor="#000000"
     borderopacity="0.25"
     inkscape:showpageshadow="2"
     inkscape:pageopacity="0.0"
     inkscape:pagecheckerboard="0"
     inkscape:deskcolor="#d1d1d1"
     inkscape:document-units="mm"
     inkscape:zoom="0.63559753"
     inkscape:cx="283.98474"
     inkscape:cy="611.23586"
     inkscape:window-width="1194"
     inkscape:window-height="1211"
     inkscape:window-x="692"
     inkscape:window-y="122"
     inkscape:window-maximized="0"
     inkscape:current-layer="layer1" />
  <defs
     id="defs1" />
  <g
     inkscape:label="图层 1"
     inkscape:groupmode="layer"
     id="layer1">
    <path
       style="fill:#8c8c8c;fill-opacity:1;stroke-width:0.139736"
       d="M 9.8396517,127.88441 C 6.452064,147.34583 9.2237281,162.5697 9.2237281,162.5697 c 0,0 -2.7716641,17.57806 0,0 2.7716649,-17.57807 0.6159236,-34.68529 0.6159236,-34.68529 z"
       id="path1" />
    <path
       style="fill:#8c8c8c;fill-opacity:1;stroke-width:0.135859"
       d="m 45.057619,128.125 c -19.164206,-3.25194 -34.155564,-0.59126 -34.155564,-0.59126 0,0 -17.3095977,-2.66068 0,0 17.309616,2.66067 34.155564,0.59126 34.155564,0.59126 z"
       id="path1-5" />
    <path
       style="fill:#8c8c8c;fill-opacity:1;stroke-width:0.139736"
       d="m 43.999717,163.70461 c -19.093694,-3.45283 -34.0298851,-0.62779 -34.0298851,-0.62779 0,0 -17.2459138,-2.82504 0,0 17.2459141,2.82504 34.0298851,0.62779 34.0298851,0.62779 z"
       id="path1-1" />
    <path
       style="fill:#8c8c8c;fill-opacity:1;stroke-width:0.139736"
       d="m 44.331479,162.2558 c 2.925646,-11.14324 -0.923885,-14.12523 -0.923885,-14.12523 0,0 0.923885,-6.90567 0,0 -0.923894,6.90567 0.923885,14.12523 0.923885,14.12523 z"
       id="path2" />
    <path
       style="fill:#8c8c8c;fill-opacity:1;stroke-width:0.177155"
       d="m 42.713278,148.32762 c -8.714898,-3.29604 -18.113321,-3.29604 -18.113321,-3.29604 0,0 -7.8605,-3.18236 0,0 7.860501,3.18237 18.113321,3.29604 18.113321,3.29604 z"
       id="path3" />
    <path
       style="fill:#8c8c8c;fill-opacity:1;stroke-width:0.304377"
       d="m 66.825329,139.69213 c -3.893206,13.4304 -14.923948,22.2662 -14.923948,22.2662 0,0 -3.244337,11.66323 0,0 3.244337,-11.66325 14.923948,-22.2662 14.923948,-22.2662 z"
       id="path4" />
    <path
       style="fill:#d03d3d;fill-opacity:1;stroke-width:0.304377"
       d="m 51.901381,143.22646 c 3.893206,11.3098 15.57281,20.85245 15.57281,20.85245 0,0 3.568775,13.43039 0,0 -3.568757,-13.43039 -15.57281,-20.85245 -15.57281,-20.85245 z"
       id="path5" />
    <path
       style="fill:#8c8c8c;fill-opacity:1;stroke-width:0.263611"
       d="m 74.162998,142.7126 c 7.607723,-3.16548 14.94372,0.31655 14.94372,0.31655 0,0 6.792599,-2.21583 0,0 -6.792598,2.21583 -14.94372,-0.31655 -14.94372,-0.31655 z"
       id="path6" />
    <path
       style="fill:#8c8c8c;fill-opacity:1;stroke-width:0.263611"
       d="m 73.486175,161.28189 c -2.717028,-8.86334 0.271709,-17.41012 0.271709,-17.41012 0,0 -1.901922,-7.91369 0,0 1.901922,7.91368 -0.271709,17.41012 -0.271709,17.41012 z"
       id="path6-7" />
    <path
       style="fill:#8c8c8c;fill-opacity:1;stroke-width:0.263611"
       d="m 74.241668,162.26582 c 7.607724,-3.16547 14.94373,0.31655 14.94373,0.31655 0,0 6.792599,-2.21583 0,0 -6.792608,2.21583 -14.94373,-0.31655 -14.94373,-0.31655 z"
       id="path6-2" />
    <path
       style="fill:#8c8c8c;fill-opacity:1;stroke-width:0.235568"
       d="m 100.29685,126.44753 c 12.42996,-3.89547 22.47971,0 22.47971,0 0,0 9.25636,-3.11638 0,0 -9.25635,3.11638 -22.47971,0 -22.47971,0 z"
       id="path7" />
    <path
       style="fill:#8c8c8c;fill-opacity:1;stroke-width:0.235568"
       d="m 99.503448,128.26542 c -2.644675,10.38792 0.528932,14.2834 0.528932,14.2834 0,0 -4.495949,5.45366 0,0 4.49594,-5.45366 -0.528932,-14.2834 -0.528932,-14.2834 z"
       id="path8" />
    <path
       style="fill:#8c8c8c;fill-opacity:1;stroke-width:0.218775"
       d="m 123.08626,162.24603 c -12.42997,3.35984 -22.47972,0 -22.47972,0 0,0 -9.256353,2.68787 0,0 9.25636,-2.68789 22.47972,0 22.47972,0 z"
       id="path7-1" />
    <path
       style="fill:#8c8c8c;fill-opacity:1;stroke-width:0.217828"
       d="m 123.51473,160.23012 c 2.8255,-8.31371 -0.56509,-11.43135 -0.56509,-11.43135 0,0 4.80335,-4.3647 0,0 -4.80336,4.36469 0.56509,11.43135 0.56509,11.43135 z"
       id="path8-6" />
    <path
       style="fill:#8ca14f;fill-opacity:1;stroke-width:0.235568"
       d="m 101.88365,143.06821 c 11.10762,-1.81788 17.98377,4.93427 17.98377,4.93427 0,0 7.14062,-0.2597 0,0 -7.14061,0.2597 -17.98377,-4.93427 -17.98377,-4.93427 z"
       id="path9" />
    <path
       style="fill:#8c8c8c;fill-opacity:1;stroke-width:0.235568"
       d="m 134.94206,142.54882 c -2.38021,11.42672 0.52893,19.99676 0.52893,19.99676 2.38021,-8.31034 -0.52893,-19.99676 -0.52893,-19.99676 z"
       id="path10" />
    <path
       style="fill:#8c8c8c;fill-opacity:1;stroke-width:0.235568"
       d="m 130.71059,150.33977 c 5.28934,-2.07759 9.25635,0.25969 9.25635,0.25969 -5.02488,2.59699 -9.25635,-0.25969 -9.25635,-0.25969 z"
       id="path11" />
    <path
       style="fill:#8c8c8c;fill-opacity:1;stroke-width:0.235568"
       d="m 146.00431,142.13159 c -1.85127,8.05064 0.26446,17.39978 0.26446,17.39978 0,0 -3.70254,10.90732 0,0 3.70254,-10.90733 -0.26446,-17.39978 -0.26446,-17.39978 z"
       id="path12" />
    <path
       style="fill:#8c8c8c;fill-opacity:1;stroke-width:0.215087"
       d="m 147.06218,160.91052 c 3.66899,-2.02877 6.77353,1.42014 6.77353,1.42014 v 0 c 0,0 3.66899,-2.23164 0,0 -3.66899,2.23165 -6.77353,-1.42014 -6.77353,-1.42014 z"
       id="path14" />
    <path
       style="fill:#8c8c8c;fill-opacity:1;stroke-width:0.235568"
       d="m 154.2028,140.57339 c -1.85128,9.86854 -0.26447,20.25647 -0.26447,20.25647 2.90914,-7.79095 0.26447,-20.25647 0.26447,-20.25647 z"
       id="path15" />
    <path
       style="fill:#8c8c8c;fill-opacity:1;stroke-width:0.235568"
       d="m 161.87401,150.49583 c -2.6181,7.71264 0,12.30351 0,12.30351 1.49605,-5.69268 0,-12.30351 0,-12.30351 z"
       id="path16" />
    <path
       style="fill:#8c8c8c;fill-opacity:1;stroke-width:0.235568"
       d="m 162.99604,150.3122 c 2.43109,-2.93815 6.54523,-3.67269 6.54523,-3.67269 0,0 2.24409,-3.12179 0,0 -2.24407,3.12178 -6.54523,3.67269 -6.54523,3.67269 z"
       id="path17" />
    <path
       style="fill:#8c8c8c;fill-opacity:1;stroke-width:0.235568"
       d="m 170.2893,138.37596 c 2.24408,9.18172 0.56103,27.17789 0.56103,27.17789 0,0 1.49605,13.40531 0,0 -1.49606,-13.40531 -0.56103,-27.17789 -0.56103,-27.17789 z"
       id="path18" />
    <path
       style="fill:#8c8c8c;fill-opacity:1;stroke-width:0.235568"
       d="m 162.62203,162.24843 c 3.55313,-2.38724 8.2283,-0.18363 8.2283,-0.18363 0,0 3.74013,-2.93815 0,0 -3.74014,2.93814 -8.2283,0.18363 -8.2283,0.18363 z"
       id="path19" />
    <path
       style="fill:#8c8c8c;fill-opacity:1;stroke-width:0.235568"
       d="m 178.17567,147.59842 c -1.49606,7.71264 0.37401,16.15982 0.37401,16.15982 0,0 -2.24407,8.63082 0,0 2.24408,-8.63082 -0.37401,-16.15982 -0.37401,-16.15982 z"
       id="path20" />
    <path
       style="fill:#8c8c8c;fill-opacity:1;stroke-width:0.313691"
       d="m 185.12903,148.06403 c -2.32127,9.18171 0.66323,14.50711 0.66323,14.50711 1.65806,-6.61083 -0.66323,-14.50711 -0.66323,-14.50711 z"
       id="path21" />
    <path
       style="fill:#8c8c8c;fill-opacity:1;stroke-width:0.2997"
       d="m 200.09082,147.9919 c -2.11882,9.18173 0.60538,14.50712 0.60538,14.50712 1.51346,-6.61084 -0.60538,-14.50712 -0.60538,-14.50712 z"
       id="path21-6" />
    <path
       style="fill:#8c8c8c;fill-opacity:1;stroke-width:0.235568"
       d="m 200.54309,146.51043 c -9.35033,-1.28544 -14.77352,0.36727 -14.77352,0.36727 6.73224,0.91818 14.77352,-0.36727 14.77352,-0.36727 z"
       id="path21-2" />
    <path
       style="fill:#8c8c8c;fill-opacity:1;stroke-width:0.269548"
       d="m 200.7301,162.82167 c -9.35033,-1.68303 -14.77352,0.48086 -14.77352,0.48086 6.73224,1.20217 14.77352,-0.48086 14.77352,-0.48086 z"
       id="path21-4" />
  </g>
</svg>
